<svg version="1.0" preserveAspectRatio="xMidYMid meet" viewBox="0 131.7749968374 375 115.49999722800001" zoomAndPan="magnify" xmlns:xlink="http://www.w3.org/1999/xlink" xmlns="http://www.w3.org/2000/svg" style="max-height: 500px" width="375" height="115.49999722800001"><defs><g/><clipPath id="d07935965b"><path clip-rule="nonzero" d="M 59 139 L 318 139 L 318 192.144531 L 59 192.144531 Z M 59 139"/></clipPath><clipPath id="7646f4cd82"><path clip-rule="nonzero" d="M 0 233 L 127.585938 233 L 127.585938 237 L 0 237 Z M 0 233"/></clipPath><clipPath id="404b7f2819"><path clip-rule="nonzero" d="M 0 230.625 L 127.585938 230.625 L 127.585938 240.046875 L 0 240.046875 Z M 0 230.625"/></clipPath><clipPath id="34acce5957"><path clip-rule="nonzero" d="M 247.410156 234 L 375 234 L 375 239 L 247.410156 239 Z M 247.410156 234"/></clipPath><clipPath id="147c74b885"><path clip-rule="nonzero" d="M 247.410156 231.011719 L 375 231.011719 L 375 240.429688 L 247.410156 240.429688 Z M 247.410156 231.011719"/></clipPath></defs><rect fill-opacity="1" height="449.999989" y="-37.499999" fill="#ffffff" width="450" x="-37.5"/><rect fill-opacity="1" height="449.999989" y="-37.499999" fill="#000000" width="450" x="-37.5"/><g clip-path="url(#d07935965b)"><path fill-rule="evenodd" fill-opacity="1" d="M 130.226562 169.089844 C 172.070312 179.167969 259.011719 159.234375 275.949219 172.441406 C 243.542969 162.53125 161.933594 184.59375 130.226562 169.089844 Z M 60.9375 192.203125 C 61.765625 177.414062 72.335938 169.617188 88.328125 169.898438 C 83.675781 166.65625 70.675781 170.765625 71.996094 163.398438 C 97.164062 163.058594 122.238281 163.34375 146.824219 166.207031 C 133.917969 161.496094 123.351562 156.898438 120.449219 153.113281 C 157.109375 143.898438 188.816406 135.949219 218.015625 158.78125 C 215.34375 159.648438 212.628906 160.476562 209.878906 161.25 C 207.109375 158.972656 204.886719 156.542969 201.289062 156.542969 C 198.613281 156.542969 196.484375 157.40625 196.484375 158.539062 C 196.484375 159.613281 198.613281 160.476562 201.289062 160.476562 C 202.457031 160.476562 203.511719 160.289062 204.339844 160.046875 L 206.429688 162.230469 C 195.46875 165.1875 183.9375 167.46875 172.144531 169.464844 C 218.113281 166.65625 239.304688 155.597656 289.832031 166.996094 C 284.59375 167.183594 280.035156 167.617188 274.988281 167.335938 C 289.832031 175.378906 303.492188 168.691406 317.847656 175.777344 C 297.179688 163.359375 267.941406 156.332031 226.34375 158.652344 C 203.058594 141.433594 187.5 136.441406 155.265625 141.433594 C 135.050781 144.539062 115.402344 150.738281 95.128906 154.429688 C 82.132812 156.765625 69.714844 158.160156 62.59375 155.691406 C 64.101562 159.519531 65.363281 163.550781 65.457031 169.070312 C 57.152344 171.746094 58.507812 181.597656 60.9375 192.203125 Z M 133.277344 154.828125 C 170.902344 144.597656 188.308594 147.253906 200.875 152.980469 C 186.367188 149.289062 171.144531 146.234375 142.304688 155.84375 C 150.742188 162.777344 165.8125 162.871094 179.832031 164.039062 C 165.683594 164.378906 152.4375 166.996094 133.277344 154.828125 Z M 133.277344 154.828125" fill="#ff9901"/></g><g fill-opacity="1" fill="#ffffff"><g transform="translate(75.053073, 217.600098)"><g><path d="M 1.03125 0 L 15.0625 0 C 25.90625 0 33.578125 -5.703125 35.5 -15.203125 C 37.5 -25.296875 31.515625 -32.734375 21.234375 -32.734375 L 7.578125 -32.734375 Z M 12.203125 -8.46875 L 15.390625 -24.265625 L 19.453125 -24.265625 C 24.453125 -24.265625 27.03125 -21.1875 26.046875 -16.421875 C 25.0625 -11.546875 21.234375 -8.46875 16.28125 -8.46875 Z M 12.203125 -8.46875"/></g></g></g><g fill-opacity="1" fill="#ffffff"><g transform="translate(111.581766, 217.600098)"><g><path d="M 1.03125 0 L 24.03125 0 L 25.578125 -7.71875 L 12.0625 -7.71875 L 13.09375 -12.765625 L 24.78125 -12.765625 L 26.328125 -20.34375 L 14.59375 -20.34375 L 15.53125 -25.109375 L 28.578125 -25.109375 L 30.0625 -32.734375 L 7.578125 -32.734375 Z M 1.03125 0"/></g></g></g><g fill-opacity="1" fill="#ffffff"><g transform="translate(140.206037, 217.600098)"><g><path d="M 8.703125 0 L 18.28125 0 L 23.0625 -23.984375 L 32.921875 -23.984375 L 34.703125 -32.734375 L 5.421875 -32.734375 L 3.640625 -23.984375 L 13.46875 -23.984375 Z M 8.703125 0"/></g></g></g><g fill-opacity="1" fill="#ffffff"><g transform="translate(172.151103, 217.600098)"><g><path d="M 2.015625 -8.65625 L 17.765625 -8.65625 L 19.03125 -14.875 L 3.28125 -14.875 Z M 2.015625 -8.65625"/></g></g></g><g fill-opacity="1" fill="#ffffff"><g transform="translate(193.478988, 217.600098)"><g><path d="M 17.015625 0.703125 C 25.8125 0.703125 33.109375 -4.484375 36.203125 -13.09375 L 26.5625 -13.09375 C 24.734375 -9.96875 21.515625 -8.046875 18.046875 -8.046875 C 13.421875 -8.046875 11.03125 -11.359375 12.015625 -16.328125 C 13 -21.28125 16.828125 -24.6875 21.515625 -24.6875 C 24.921875 -24.6875 27.359375 -22.828125 27.78125 -19.828125 L 37.21875 -19.828125 C 37.125 -27.96875 30.953125 -33.4375 22.03125 -33.4375 C 12.296875 -33.4375 4.53125 -26.984375 2.53125 -17.0625 C 0.421875 -6.734375 6.453125 0.703125 17.015625 0.703125 Z M 17.015625 0.703125"/></g></g></g><g fill-opacity="1" fill="#ffffff"><g transform="translate(230.989885, 217.600098)"><g><path d="M -2.25 0 L 8.421875 0 L 11.171875 -4.625 L 22.40625 -4.625 L 23.203125 0 L 32.546875 0 L 26.421875 -32.734375 L 17.015625 -32.734375 Z M 14.453125 -11.546875 L 20.015625 -21.703125 L 21.609375 -11.546875 Z M 14.453125 -11.546875"/></g></g></g><g fill-opacity="1" fill="#ffffff"><g transform="translate(266.255744, 217.600098)"><g><path d="M 1.03125 0 L 10.421875 0 L 12.34375 -9.3125 L 15.90625 -9.3125 L 18.703125 0 L 29.375 0 L 25.578125 -10.84375 C 29.375 -12.671875 31.9375 -15.90625 32.828125 -20.296875 C 34.375 -27.875 30.203125 -32.734375 22.265625 -32.734375 L 7.578125 -32.734375 Z M 13.65625 -16.828125 L 15.296875 -25.015625 L 19.640625 -25.015625 C 22.6875 -25.015625 23.984375 -23.515625 23.421875 -20.953125 C 22.921875 -18.328125 20.953125 -16.828125 17.953125 -16.828125 Z M 13.65625 -16.828125"/></g></g></g><g fill-opacity="1" fill="#ffffff"><g transform="translate(150.36679, 231.696011)"><g><path d="M 0.453125 0 L 2.671875 0 C 4.609375 0 6.1875 -1.265625 6.53125 -3.09375 C 6.921875 -5 5.8125 -6.359375 3.890625 -6.359375 L 1.71875 -6.359375 Z M 1.421875 -0.765625 L 2.390625 -5.59375 L 3.796875 -5.59375 C 5.25 -5.59375 6.015625 -4.65625 5.734375 -3.234375 C 5.4375 -1.765625 4.21875 -0.765625 2.734375 -0.765625 Z M 1.421875 -0.765625"/></g></g></g><g fill-opacity="1" fill="#ffffff"><g transform="translate(160.415406, 231.696011)"><g><path d="M 0.453125 0 L 4.40625 0 L 4.5625 -0.75 L 1.421875 -0.75 L 1.84375 -2.875 L 4.65625 -2.875 L 4.796875 -3.609375 L 1.984375 -3.609375 L 2.390625 -5.609375 L 5.4375 -5.609375 L 5.578125 -6.359375 L 1.71875 -6.359375 Z M 0.453125 0"/></g></g></g><g fill-opacity="1" fill="#ffffff"><g transform="translate(169.021411, 231.696011)"><g><path d="M 1.984375 0 L 2.796875 0 L 3.90625 -5.59375 L 6.0625 -5.59375 L 6.203125 -6.359375 L 1.109375 -6.359375 L 0.96875 -5.59375 L 3.09375 -5.59375 Z M 1.984375 0"/></g></g></g><g fill-opacity="1" fill="#ffffff"><g transform="translate(177.872382, 231.696011)"><g><path d="M -0.3125 0 L 0.578125 0 L 1.46875 -1.4375 L 4.5625 -1.4375 L 4.859375 0 L 5.65625 0 L 4.328125 -6.359375 L 3.5625 -6.359375 Z M 1.921875 -2.1875 L 3.765625 -5.234375 L 4.40625 -2.1875 Z M 1.921875 -2.1875"/></g></g></g><g fill-opacity="1" fill="#ffffff"><g transform="translate(187.285882, 231.696011)"><g><path d="M 0.453125 0 L 1.265625 0 L 2.546875 -6.359375 L 1.71875 -6.359375 Z M 0.453125 0"/></g></g></g><g fill-opacity="1" fill="#ffffff"><g transform="translate(193.088301, 231.696011)"><g><path d="M 0.453125 0 L 4.34375 0 L 4.5 -0.765625 L 1.421875 -0.765625 L 2.546875 -6.359375 L 1.71875 -6.359375 Z M 0.453125 0"/></g></g></g><g fill-opacity="1" fill="#ffffff"><g transform="translate(201.313233, 231.696011)"><g><path d="M 0.453125 0 L 1.265625 0 L 2.546875 -6.359375 L 1.71875 -6.359375 Z M 0.453125 0"/></g></g></g><g fill-opacity="1" fill="#ffffff"><g transform="translate(207.115652, 231.696011)"><g><path d="M 0.453125 0 L 1.265625 0 L 2.0625 -3.953125 L 2.28125 -5.03125 L 4.765625 0 L 5.5 0 L 6.765625 -6.359375 L 5.96875 -6.359375 L 5.234375 -2.6875 L 4.953125 -1.3125 L 2.46875 -6.359375 L 1.71875 -6.359375 Z M 0.453125 0"/></g></g></g><g fill-opacity="1" fill="#ffffff"><g transform="translate(217.146129, 231.696011)"><g><path d="M 3.34375 0.125 C 5.3125 0.125 6.859375 -1.3125 7.203125 -3.4375 L 3.765625 -3.453125 L 3.609375 -2.6875 L 6.125 -2.6875 C 5.765625 -1.5 4.671875 -0.6875 3.390625 -0.6875 C 1.984375 -0.6875 1.203125 -1.65625 1.5 -3.125 C 1.8125 -4.625 3.046875 -5.671875 4.5 -5.671875 C 5.46875 -5.671875 6.125 -5.203125 6.34375 -4.359375 L 7.1875 -4.359375 C 7.046875 -5.609375 6.03125 -6.46875 4.53125 -6.46875 C 2.625 -6.46875 1.078125 -5.15625 0.703125 -3.21875 C 0.3125 -1.265625 1.421875 0.125 3.34375 0.125 Z M 3.34375 0.125"/></g></g></g><g fill-opacity="1" fill="#ffffff"><g transform="translate(158.510529, 243.846669)"><g><path d="M 2.609375 0.125 C 4.046875 0.125 4.953125 -0.546875 5.15625 -1.53125 C 5.359375 -2.546875 4.78125 -3.203125 3.28125 -3.5625 C 2.140625 -3.828125 1.8125 -4.15625 1.9375 -4.765625 C 2.03125 -5.296875 2.671875 -5.703125 3.53125 -5.703125 C 4.515625 -5.703125 4.96875 -5.25 4.828125 -4.46875 L 5.625 -4.46875 C 5.84375 -5.6875 5.0625 -6.46875 3.578125 -6.46875 C 2.25 -6.46875 1.296875 -5.8125 1.109375 -4.859375 C 0.90625 -3.78125 1.5 -3.21875 3.03125 -2.828125 C 4.140625 -2.546875 4.453125 -2.203125 4.328125 -1.59375 C 4.21875 -1.0625 3.59375 -0.640625 2.640625 -0.640625 C 1.625 -0.640625 1.140625 -1.140625 1.265625 -1.953125 L 0.46875 -1.953125 C 0.25 -0.6875 1.109375 0.125 2.609375 0.125 Z M 2.609375 0.125"/></g></g></g><g fill-opacity="1" fill="#ffffff"><g transform="translate(167.506673, 243.846669)"><g><path d="M 0.453125 0 L 4.40625 0 L 4.5625 -0.75 L 1.421875 -0.75 L 1.84375 -2.875 L 4.65625 -2.875 L 4.796875 -3.609375 L 1.984375 -3.609375 L 2.390625 -5.609375 L 5.4375 -5.609375 L 5.578125 -6.359375 L 1.71875 -6.359375 Z M 0.453125 0"/></g></g></g><g fill-opacity="1" fill="#ffffff"><g transform="translate(176.112678, 243.846669)"><g><path d="M 0.453125 0 L 1.265625 0 L 1.71875 -2.28125 L 3.203125 -2.28125 L 4.28125 0 L 5.15625 0 L 4.03125 -2.359375 C 5.03125 -2.578125 5.71875 -3.265625 5.921875 -4.25 C 6.171875 -5.515625 5.4375 -6.359375 4.046875 -6.359375 L 1.71875 -6.359375 Z M 1.875 -3.046875 L 2.390625 -5.59375 L 3.859375 -5.59375 C 4.90625 -5.59375 5.265625 -5.125 5.109375 -4.34375 C 4.9375 -3.546875 4.328125 -3.046875 3.28125 -3.046875 Z M 1.875 -3.046875"/></g></g></g><g fill-opacity="1" fill="#ffffff"><g transform="translate(185.417304, 243.846669)"><g><path d="M 2.21875 0 L 2.953125 0 L 6.75 -6.359375 L 5.859375 -6.359375 L 4.25 -3.671875 L 2.765625 -1.15625 L 2.265625 -3.671875 L 1.765625 -6.359375 L 0.953125 -6.359375 Z M 2.21875 0"/></g></g></g><g fill-opacity="1" fill="#ffffff"><g transform="translate(194.658418, 243.846669)"><g><path d="M 0.453125 0 L 1.265625 0 L 2.546875 -6.359375 L 1.71875 -6.359375 Z M 0.453125 0"/></g></g></g><g fill-opacity="1" fill="#ffffff"><g transform="translate(200.460837, 243.846669)"><g><path d="M 3.390625 0.125 C 4.859375 0.125 6.234375 -0.71875 6.90625 -2.234375 L 6.03125 -2.234375 C 5.484375 -1.296875 4.46875 -0.6875 3.390625 -0.6875 C 1.984375 -0.6875 1.21875 -1.671875 1.515625 -3.109375 C 1.8125 -4.609375 3.015625 -5.671875 4.5 -5.671875 C 5.53125 -5.671875 6.25 -5.109375 6.390625 -4.1875 L 7.21875 -4.1875 C 7.078125 -5.578125 5.984375 -6.46875 4.46875 -6.46875 C 2.609375 -6.46875 1.09375 -5.140625 0.703125 -3.234375 C 0.3125 -1.296875 1.453125 0.125 3.390625 0.125 Z M 3.390625 0.125"/></g></g></g><g fill-opacity="1" fill="#ffffff"><g transform="translate(211.008475, 243.846669)"><g><path d="M 0.453125 0 L 4.40625 0 L 4.5625 -0.75 L 1.421875 -0.75 L 1.84375 -2.875 L 4.65625 -2.875 L 4.796875 -3.609375 L 1.984375 -3.609375 L 2.390625 -5.609375 L 5.4375 -5.609375 L 5.578125 -6.359375 L 1.71875 -6.359375 Z M 0.453125 0"/></g></g></g><g clip-path="url(#7646f4cd82)"><path fill-rule="nonzero" fill-opacity="1" d="M -2.066406 236.265625 L 286.351562 236.265625 L 286.351562 233.03125 Z M -2.066406 236.265625" fill="#ff9901"/></g><g clip-path="url(#404b7f2819)"><path fill-rule="nonzero" fill-opacity="1" d="M 308.347656 250.5625 L 288.339844 250.5625 L 285.257812 244.371094 L -21.902344 244.371094 L 283.289062 244.371094 L 286.726562 241.792969 L 289.800781 247.113281 L 302.90625 247.113281 L 291.96875 227.320312 L 18.632812 227.320312 L 293.441406 224.753906 L 308.347656 250.5625" fill="#ff9901"/></g><g clip-path="url(#34acce5957)"><path fill-rule="nonzero" fill-opacity="1" d="M 377.0625 234.792969 L 88.644531 234.792969 L 88.644531 238.027344 Z M 377.0625 234.792969" fill="#ff9901"/></g><g clip-path="url(#147c74b885)"><path fill-rule="nonzero" fill-opacity="1" d="M 66.648438 220.496094 L 86.652344 220.496094 L 89.738281 226.6875 L 396.898438 226.6875 L 91.707031 226.6875 L 88.269531 229.261719 L 85.195312 223.945312 L 72.089844 223.945312 L 83.023438 243.738281 L 356.359375 243.738281 L 81.554688 246.300781 L 66.648438 220.496094" fill="#ff9901"/></g></svg>